<mxfile host="app.diagrams.net" modified="2021-11-03T16:41:02.659Z" agent="5.0 (Windows NT 10.0; Win64; x64) AppleWebKit/537.36 (KHTML, like Gecko) Chrome/95.0.4638.69 Safari/537.36" etag="I_HZeiSOB6Flj_Clf4Am" version="15.6.8" type="github">
  <diagram id="r6OiJV4b1GCmFIwbO8p1" name="Page-1">
    <mxGraphModel dx="1550" dy="779" grid="1" gridSize="10" guides="1" tooltips="1" connect="1" arrows="1" fold="1" page="1" pageScale="1" pageWidth="827" pageHeight="1169" background="#EEEEEE" math="0" shadow="0">
      <root>
        <mxCell id="0" />
        <mxCell id="1" parent="0" />
        <mxCell id="CT3Y8Q6tnGxaMmY3rbt8-1" value="FilterBlockBuilder" style="swimlane;fontStyle=0;childLayout=stackLayout;horizontal=1;startSize=30;horizontalStack=0;resizeParent=1;resizeParentMax=0;resizeLast=0;collapsible=1;marginBottom=0;sketch=1;fillColor=#F5AB50;strokeColor=#909090;fontColor=#1A1A1A;" parent="1" vertex="1">
          <mxGeometry x="40" y="375" width="310" height="210" as="geometry" />
        </mxCell>
        <mxCell id="CT3Y8Q6tnGxaMmY3rbt8-2" value="const FilterPolicy* policy_" style="text;strokeColor=#909090;fillColor=#F5AB50;align=left;verticalAlign=middle;spacingLeft=4;spacingRight=4;overflow=hidden;points=[[0,0.5],[1,0.5]];portConstraint=eastwest;rotatable=0;fontColor=#1A1A1A;sketch=1;" parent="CT3Y8Q6tnGxaMmY3rbt8-1" vertex="1">
          <mxGeometry y="30" width="310" height="30" as="geometry" />
        </mxCell>
        <mxCell id="CT3Y8Q6tnGxaMmY3rbt8-3" value="std::string keys_" style="text;strokeColor=#909090;fillColor=#F5AB50;align=left;verticalAlign=middle;spacingLeft=4;spacingRight=4;overflow=hidden;points=[[0,0.5],[1,0.5]];portConstraint=eastwest;rotatable=0;fontColor=#1A1A1A;sketch=1;" parent="CT3Y8Q6tnGxaMmY3rbt8-1" vertex="1">
          <mxGeometry y="60" width="310" height="30" as="geometry" />
        </mxCell>
        <mxCell id="CT3Y8Q6tnGxaMmY3rbt8-4" value="std::vector&lt;size_t&gt; start_" style="text;strokeColor=#909090;fillColor=#F5AB50;align=left;verticalAlign=middle;spacingLeft=4;spacingRight=4;overflow=hidden;points=[[0,0.5],[1,0.5]];portConstraint=eastwest;rotatable=0;sketch=1;fontColor=#1A1A1A;" parent="CT3Y8Q6tnGxaMmY3rbt8-1" vertex="1">
          <mxGeometry y="90" width="310" height="30" as="geometry" />
        </mxCell>
        <mxCell id="CT3Y8Q6tnGxaMmY3rbt8-5" value="std::string result_" style="text;strokeColor=#909090;fillColor=#F5AB50;align=left;verticalAlign=middle;spacingLeft=4;spacingRight=4;overflow=hidden;points=[[0,0.5],[1,0.5]];portConstraint=eastwest;rotatable=0;sketch=1;fontColor=#1A1A1A;" parent="CT3Y8Q6tnGxaMmY3rbt8-1" vertex="1">
          <mxGeometry y="120" width="310" height="30" as="geometry" />
        </mxCell>
        <mxCell id="CT3Y8Q6tnGxaMmY3rbt8-6" value="std::vector&lt;Slice&gt; tmp_keys_" style="text;strokeColor=#909090;fillColor=#F5AB50;align=left;verticalAlign=middle;spacingLeft=4;spacingRight=4;overflow=hidden;points=[[0,0.5],[1,0.5]];portConstraint=eastwest;rotatable=0;sketch=1;fontColor=#1A1A1A;" parent="CT3Y8Q6tnGxaMmY3rbt8-1" vertex="1">
          <mxGeometry y="150" width="310" height="30" as="geometry" />
        </mxCell>
        <mxCell id="CT3Y8Q6tnGxaMmY3rbt8-7" value="std::vector&lt;uint32_t&gt; filter_offsets_" style="text;strokeColor=#909090;fillColor=#F5AB50;align=left;verticalAlign=middle;spacingLeft=4;spacingRight=4;overflow=hidden;points=[[0,0.5],[1,0.5]];portConstraint=eastwest;rotatable=0;sketch=1;fontColor=#1A1A1A;" parent="CT3Y8Q6tnGxaMmY3rbt8-1" vertex="1">
          <mxGeometry y="180" width="310" height="30" as="geometry" />
        </mxCell>
        <mxCell id="CT3Y8Q6tnGxaMmY3rbt8-8" value="abc" style="rounded=0;whiteSpace=wrap;html=1;strokeColor=#909090;fillColor=#F5AB50;fontColor=#1A1A1A;sketch=1;" parent="1" vertex="1">
          <mxGeometry x="520" y="400" width="120" height="40" as="geometry" />
        </mxCell>
        <mxCell id="CT3Y8Q6tnGxaMmY3rbt8-9" value="defg" style="rounded=0;whiteSpace=wrap;html=1;strokeColor=#909090;fillColor=#F5AB50;fontColor=#1A1A1A;sketch=1;" parent="1" vertex="1">
          <mxGeometry x="640" y="400" width="160" height="40" as="geometry" />
        </mxCell>
        <mxCell id="CT3Y8Q6tnGxaMmY3rbt8-10" value="hi" style="rounded=0;whiteSpace=wrap;html=1;strokeColor=#909090;fillColor=#F5AB50;fontColor=#1A1A1A;sketch=1;" parent="1" vertex="1">
          <mxGeometry x="800" y="400" width="80" height="40" as="geometry" />
        </mxCell>
        <mxCell id="CT3Y8Q6tnGxaMmY3rbt8-11" value="g" style="rounded=0;whiteSpace=wrap;html=1;strokeColor=#909090;fillColor=#F5AB50;fontColor=#1A1A1A;sketch=1;" parent="1" vertex="1">
          <mxGeometry x="880" y="400" width="40" height="40" as="geometry" />
        </mxCell>
        <mxCell id="CT3Y8Q6tnGxaMmY3rbt8-12" value="3" style="rounded=0;whiteSpace=wrap;html=1;strokeColor=#909090;fillColor=#F5AB50;fontColor=#1A1A1A;sketch=1;" parent="1" vertex="1">
          <mxGeometry x="520" y="610" width="160" height="40" as="geometry" />
        </mxCell>
        <mxCell id="CT3Y8Q6tnGxaMmY3rbt8-13" value="3+4" style="rounded=0;whiteSpace=wrap;html=1;strokeColor=#909090;fillColor=#F5AB50;fontColor=#1A1A1A;sketch=1;" parent="1" vertex="1">
          <mxGeometry x="520" y="650" width="160" height="40" as="geometry" />
        </mxCell>
        <mxCell id="CT3Y8Q6tnGxaMmY3rbt8-14" value="3+4+2" style="rounded=0;whiteSpace=wrap;html=1;strokeColor=#909090;fillColor=#F5AB50;fontColor=#1A1A1A;sketch=1;" parent="1" vertex="1">
          <mxGeometry x="520" y="690" width="160" height="40" as="geometry" />
        </mxCell>
        <mxCell id="CT3Y8Q6tnGxaMmY3rbt8-15" value="3+4+2+1" style="rounded=0;whiteSpace=wrap;html=1;strokeColor=#909090;fillColor=#F5AB50;fontColor=#1A1A1A;sketch=1;" parent="1" vertex="1">
          <mxGeometry x="520" y="730" width="160" height="40" as="geometry" />
        </mxCell>
        <mxCell id="CT3Y8Q6tnGxaMmY3rbt8-18" style="edgeStyle=orthogonalEdgeStyle;curved=1;rounded=1;sketch=0;orthogonalLoop=1;jettySize=auto;html=1;entryX=0;entryY=0.5;entryDx=0;entryDy=0;fontColor=#1A1A1A;strokeColor=#182E3E;labelBackgroundColor=default;" parent="1" source="CT3Y8Q6tnGxaMmY3rbt8-5" target="CT3Y8Q6tnGxaMmY3rbt8-8" edge="1">
          <mxGeometry relative="1" as="geometry" />
        </mxCell>
        <mxCell id="CT3Y8Q6tnGxaMmY3rbt8-19" style="edgeStyle=orthogonalEdgeStyle;curved=1;rounded=1;sketch=0;orthogonalLoop=1;jettySize=auto;html=1;entryX=0.5;entryY=0;entryDx=0;entryDy=0;labelBackgroundColor=default;fontColor=#1A1A1A;strokeColor=#182E3E;" parent="1" source="CT3Y8Q6tnGxaMmY3rbt8-7" target="CT3Y8Q6tnGxaMmY3rbt8-12" edge="1">
          <mxGeometry relative="1" as="geometry" />
        </mxCell>
      </root>
    </mxGraphModel>
  </diagram>
</mxfile>
